<svg width="195" height="26" viewBox="0 0 195 26" xmlns="http://www.w3.org/2000/svg" xmlns:xlink="http://www.w3.org/1999/xlink" xmlns:figma="http://www.figma.com/figma/ns"><title>Group</title><desc>Created using Figma</desc><g style="mix-blend-mode:normal" figma:type="frame"><use xlink:href="#a" transform="translate(1682 491) translate(-1682 -481.198)" fill="#231F20" style="mix-blend-mode:normal" id="Vector" figma:type="vector"/><use xlink:href="#b" transform="translate(1682 491) translate(-1664.83 -481.152)" fill="#231F20" style="mix-blend-mode:normal" id="Vector" figma:type="vector"/><use xlink:href="#c" transform="translate(1682 491) translate(-1642.93 -481.152)" fill="#231F20" style="mix-blend-mode:normal" id="Vector" figma:type="vector"/><use xlink:href="#d" transform="translate(1682 491) translate(-1628.34 -490.77)" fill="#231F20" style="mix-blend-mode:normal" id="Vector" figma:type="vector"/><use xlink:href="#e" transform="translate(1682 491) translate(-1617.06 -481.106)" fill="#231F20" style="mix-blend-mode:normal" id="Vector" figma:type="vector"/><use xlink:href="#f" transform="translate(1682 491) translate(-1601.02 -491)" fill="#231F20" style="mix-blend-mode:normal" id="Vector" figma:type="vector"/><use xlink:href="#g" transform="translate(1682 491) translate(-1579.35 -481.06)" fill="#939598" style="mix-blend-mode:normal" id="Vector" figma:type="vector"/><use xlink:href="#h" transform="translate(1682 491) translate(-1547.31 -481.014)" fill="#939598" style="mix-blend-mode:normal" id="Vector" figma:type="vector"/><use xlink:href="#i" transform="translate(1682 491) translate(-1528.17 -481.014)" fill="#939598" style="mix-blend-mode:normal" id="Vector" figma:type="vector"/><use xlink:href="#j" transform="translate(1682 491) translate(-1505.34 -490.862)" fill="#939598" style="mix-blend-mode:normal" figma:type="vector"/></g><defs><path id="a" d="M3.602 6.811v1.6560000000000001c0 .782.047 1.565.14 2.439.094.828.281 1.611.608 2.301.327.69.795 1.242 1.45 1.703.655.46 1.45.69 2.526.69 1.029 0 1.918-.138 2.573-.46.702-.322 1.216-.69 1.591-1.104.374-.414.702-.874.889-1.334.187-.46.328-.828.421-1.104l.515.092c-.094.276-.187.644-.421 1.104-.187.46-.515.966-.983 1.427-.421.46-1.029.92-1.778 1.242-.748.368-1.731.552-2.901.552-1.17 0-2.292-.184-3.322-.552-1.029-.368-1.871-.92-2.62-1.611-.749-.69-1.31-1.565-1.731-2.531-.374-.966-.561-2.071-.561-3.267 0-1.012.187-2.025.608-2.991.421-.966.982-1.841 1.731-2.577.749-.736 1.591-1.335 2.573-1.795.982-.46 2.012-.69 3.135-.69.655 0 1.404.138 2.152.368.749.23 1.45.598 2.105 1.15.655.506 1.216 1.242 1.637 2.117.421.874.655 1.933.655 3.221l-10.994-.046zm7.392-.506c.047-.322.094-.644.094-.92v-.874c0-.782-.094-1.473-.234-1.979s-.374-.92-.655-1.242c-.281-.322-.608-.506-.982-.644s-.795-.184-1.263-.184c-.795 0-1.497.138-2.012.46-.515.322-.936.736-1.263 1.288-.327.552-.561 1.15-.702 1.841-.14.69-.234 1.427-.327 2.209l7.345.046z"/><path id="b" d="M0 15.002h2.76v-14.127h-2.76v-.506h5.755v3.773h.094c.14-.322.374-.69.608-1.15.281-.46.655-.92 1.123-1.381.468-.46 1.076-.828 1.778-1.15.702-.322 1.591-.46 2.62-.46 1.591 0 2.854.368 3.836 1.15.982.736 1.497 1.933 1.497 3.589v10.262h2.76v.506h-8.562v-.506h2.76v-11.366c0-.92-.234-1.657-.655-2.255-.421-.598-1.123-.874-2.059-.874-.749 0-1.497.184-2.199.506-.702.322-1.31.782-1.825 1.381-.515.598-.936 1.288-1.216 2.071-.281.782-.468 1.657-.468 2.623v7.961h2.76v.506h-8.562l-.047-.552z"/><path id="c" d="M0 15.002h2.76v-14.127h-2.76v-.506h5.755v3.543h.094c.094-.368.234-.736.468-1.196.234-.46.515-.874.889-1.288.374-.414.842-.736 1.357-1.012s1.17-.414 1.965-.414c.562 0 1.029.092 1.45.276.421.184.748.414.982.69.281.276.468.598.561.92.14.368.187.69.187 1.058 0 .782-.187 1.288-.561 1.565-.374.276-.795.368-1.263.368-1.029 0-1.591-.322-1.591-.966 0-.23 0-.368.094-.506l.14-.368.14-.46c.047-.184.094-.414.094-.69 0-.736-.421-1.104-1.263-1.104-.374 0-.795.138-1.216.414-.421.276-.842.69-1.216 1.242s-.702 1.196-.936 1.933c-.234.782-.374 1.657-.374 2.623l.094 8.053h3.088v.506h-8.936v-.552z"/><path id="d" d="M0 24.666h2.76v-14.081h-2.76v-.506h5.848v14.588h2.76v.506h-8.562l-.047-.506zm2.339-22.779c0-.506.187-.966.561-1.335.374-.368.795-.552 1.357-.552.515 0 .982.184 1.357.552.374.368.561.782.561 1.335 0 .506-.187.966-.561 1.335-.374.368-.842.552-1.357.552s-.982-.184-1.357-.552c-.374-.414-.561-.828-.561-1.335z"/><path id="e" d="M14.269 11.643c-.093.276-.187.644-.421 1.104-.187.46-.515.966-.982 1.427-.421.46-1.029.92-1.778 1.288-.749.368-1.731.552-2.901.552-.889 0-1.825-.138-2.807-.414-.982-.276-1.871-.736-2.667-1.335-.795-.644-1.45-1.427-1.965-2.439-.515-1.012-.749-2.255-.749-3.727 0-1.15.234-2.209.655-3.221.421-.966 1.029-1.841 1.778-2.577.749-.736 1.637-1.288 2.667-1.703 1.029-.414 2.105-.598 3.228-.598.655 0 1.31.092 1.965.23.702.138 1.31.368 1.871.69.561.322 1.029.736 1.404 1.242.374.506.561 1.104.561 1.841 0 .506-.14.92-.468 1.196-.327.322-.795.46-1.357.46-.421 0-.795-.092-1.17-.276-.374-.184-.561-.46-.561-.92 0-.322.094-.736.234-1.196.187-.46.234-.874.234-1.15 0-.552-.281-.966-.842-1.242-.561-.276-1.17-.46-1.871-.46-.515 0-1.076.046-1.637.184-.561.138-1.076.46-1.544.966-.468.506-.842 1.288-1.17 2.301-.281 1.012-.468 2.439-.468 4.234 0 1.012.047 1.979.187 2.853.14.874.374 1.657.702 2.347.328.69.842 1.197 1.45 1.565.608.368 1.404.598 2.386.598 1.029 0 1.918-.138 2.573-.46.702-.322 1.216-.69 1.591-1.104.374-.414.702-.874.889-1.335.187-.46.328-.828.421-1.104l.561.184z"/><path id="f" d="M0 24.896h2.76v-24.389h-2.76v-.506h5.848v13.805h.094c.14-.322.327-.69.608-1.15.281-.46.655-.874 1.17-1.288.468-.414 1.076-.782 1.778-1.058s1.544-.414 2.526-.414c1.591 0 2.854.368 3.836 1.15.983.736 1.497 1.933 1.497 3.589v10.262h2.76v.506h-8.562v-.506h2.76v-11.366c0-.92-.234-1.657-.655-2.255-.421-.598-1.123-.874-2.058-.874-.749 0-1.497.184-2.199.506-.702.322-1.31.782-1.825 1.38-.515.598-.936 1.289-1.216 2.071-.281.782-.468 1.657-.468 2.623v7.961h2.76v.506h-8.562l-.094-.552z"/><path id="g" d="M0 15.002h2.76v-14.127h-2.76v-.506h5.755v3.681h.094c.515-1.427 1.216-2.439 2.152-3.083.936-.644 2.059-.966 3.415-.966 1.17 0 2.246.276 3.181.782.936.506 1.497 1.381 1.825 2.577h.094c.187-.414.374-.828.702-1.242.281-.414.655-.782 1.076-1.058.421-.322.936-.552 1.497-.736.608-.184 1.263-.276 1.965-.276 3.462 0 5.24 1.749 5.24 5.246v9.756h2.76v.506h-8.562v-.506h2.76v-11.965c0-.782-.234-1.427-.655-1.887-.421-.46-1.029-.69-1.825-.69-.608 0-1.17.092-1.778.322-.608.23-1.123.552-1.591 1.012-.468.46-.889 1.012-1.17 1.703-.281.69-.468 1.519-.468 2.485v8.973h2.76v.506h-8.562v-.506h2.76v-11.458c0-1.012-.234-1.795-.655-2.301-.421-.506-.982-.736-1.731-.736-.515 0-1.029.138-1.638.368-.608.23-1.17.644-1.684 1.15-.515.552-.936 1.196-1.31 2.071-.327.828-.515 1.887-.515 3.083v7.823h2.76v.506h-8.562l-.094-.506z"/><path id="h" d="M0 7.961c0-1.15.281-2.209.749-3.175.515-.966 1.17-1.841 1.965-2.531.795-.736 1.684-1.288 2.667-1.657.982-.414 1.965-.598 2.901-.598.936 0 1.918.184 2.901.598.982.414 1.871.966 2.667 1.657.795.736 1.45 1.565 1.965 2.531.515.966.749 2.071.749 3.221 0 1.104-.234 2.163-.702 3.129-.468.966-1.123 1.841-1.871 2.531-.795.736-1.684 1.289-2.667 1.703-.982.414-2.012.644-3.088.644-1.029 0-2.059-.23-3.088-.644-.982-.414-1.871-1.012-2.667-1.749-.795-.736-1.404-1.565-1.871-2.531-.374-1.012-.608-2.025-.608-3.129zm3.556 0c0 1.657.14 2.991.374 3.958.281.966.608 1.749 1.029 2.255.421.506.936.874 1.497 1.058.561.184 1.17.23 1.825.23s1.263-.092 1.825-.23c.561-.184 1.076-.506 1.497-1.058.421-.506.795-1.289 1.029-2.255.281-.966.374-2.301.374-3.958 0-1.427-.094-2.577-.281-3.543-.187-.966-.468-1.703-.889-2.301-.374-.598-.889-1.012-1.497-1.288-.608-.276-1.31-.368-2.105-.368-.795 0-1.497.138-2.105.368-.608.276-1.076.69-1.497 1.288-.374.598-.702 1.381-.889 2.301-.094.966-.187 2.117-.187 3.543z"/><path id="i" d="M0 15.002h2.76v-14.127h-2.76v-.506h5.755v3.773h.094c.14-.322.374-.69.608-1.15.281-.46.655-.92 1.123-1.381.468-.46 1.076-.828 1.778-1.15.702-.322 1.591-.46 2.62-.46 1.591 0 2.854.368 3.836 1.15.982.736 1.497 1.933 1.497 3.589v10.262h2.76v.506h-8.562v-.506h2.76v-11.366c0-.92-.234-1.657-.655-2.255-.421-.598-1.123-.874-2.059-.874-.749 0-1.497.184-2.199.506-.702.322-1.31.782-1.825 1.381-.515.598-.936 1.288-1.216 2.071-.281.782-.468 1.657-.468 2.623v7.961h2.76v.506h-8.562l-.047-.552z"/><path id="j" d="M9.778 0h5.848l-.047 24.85h2.76v.506h-5.755v-3.083h-.094c-.094.276-.234.598-.421 1.012-.187.414-.468.782-.842 1.15-.374.368-.842.69-1.404.966-.561.276-1.263.414-2.059.414-1.029 0-2.059-.23-2.994-.69-.936-.46-1.778-1.058-2.48-1.795-.702-.736-1.263-1.611-1.684-2.577-.421-.966-.608-1.979-.608-3.083 0-1.058.187-2.071.608-3.037.421-.966.936-1.795 1.637-2.531.702-.736 1.497-1.289 2.386-1.703.889-.414 1.871-.644 2.901-.644 1.31 0 2.386.322 3.181.966.795.644 1.403 1.427 1.731 2.301h.094v-12.609h-2.76v-.414zm-6.222 17.303c0 1.196.047 2.347.094 3.313.094 1.012.234 1.841.515 2.531.281.69.702 1.242 1.263 1.611.561.368 1.357.552 2.339.552s1.825-.23 2.433-.644c.608-.414 1.076-.966 1.404-1.611.327-.69.561-1.427.702-2.255.14-.828.187-1.611.187-2.393 0-.92 0-1.703-.047-2.393-.047-.69-.094-1.242-.187-1.795-.094-.506-.234-.966-.374-1.335-.187-.368-.374-.736-.608-1.059-.374-.46-.842-.874-1.404-1.15-.561-.322-1.31-.46-2.199-.46-.842 0-1.497.184-2.059.506-.515.322-.936.782-1.263 1.381-.281.598-.515 1.335-.608 2.209-.094.966-.187 1.933-.187 2.991z"/></defs></svg>